<svg width="13" height="21" viewBox="0 0 13 21" fill="none" xmlns="http://www.w3.org/2000/svg">
<g clip-path="url(#clip0_399_36)">
<g clip-path="url(#clip1_399_36)">
<path d="M1.30843 10.0318L5.16665 5.94115C5.23637 5.84816 5.35259 5.82495 5.44556 5.82495C5.53852 5.82495 5.6315 5.84816 5.70122 5.91794C5.86391 6.05734 5.86391 6.28982 5.72446 6.42922L2.47055 9.91558H11.2329C11.442 9.91558 11.6047 10.0783 11.6047 10.2642C11.6047 10.4502 11.442 10.6593 11.2329 10.6593H2.47055L5.72446 14.1224C5.86391 14.2619 5.86391 14.4943 5.70122 14.6337C5.53852 14.7732 5.3061 14.7732 5.16665 14.6105L1.30843 10.5199C1.16903 10.3804 1.16903 10.1712 1.30843 10.0318Z" fill="#686054"/>
</g>
</g>
<defs>
<clipPath id="clip0_399_36">
<rect width="11.06" height="20.4" fill="white" transform="matrix(-1 0 0 -1 12.0298 20.7)"/>
</clipPath>
<clipPath id="clip1_399_36">
<rect width="11.05" height="9.35" fill="white" transform="matrix(-1 0 0 -1 12.0298 15.175)"/>
</clipPath>
</defs>
</svg>
