<svg width="13" height="21" viewBox="0 0 13 21" fill="none" xmlns="http://www.w3.org/2000/svg">
<g clip-path="url(#clip0_399_25)">
<g clip-path="url(#clip1_399_25)">
<path d="M11.6913 10.968L7.83311 15.0586C7.76338 15.1516 7.64717 15.1748 7.5542 15.1748C7.46123 15.1748 7.36826 15.1516 7.29853 15.0818C7.13584 14.9424 7.13584 14.7099 7.27529 14.5705L10.5292 11.0842H1.76689C1.55771 11.0842 1.39502 10.9215 1.39502 10.7355C1.39502 10.5496 1.55771 10.3404 1.76689 10.3404H10.5292L7.27529 6.87734C7.13584 6.73789 7.13584 6.50547 7.29853 6.36601C7.46123 6.22656 7.69366 6.22656 7.83311 6.38925L11.6913 10.4799C11.8307 10.6193 11.8307 10.8285 11.6913 10.968Z" fill="#686054"/>
</g>
</g>
<defs>
<clipPath id="clip0_399_25">
<rect width="11.06" height="20.4" fill="white" transform="translate(0.969971 0.299805)"/>
</clipPath>
<clipPath id="clip1_399_25">
<rect width="11.05" height="9.35" fill="white" transform="translate(0.969971 5.82471)"/>
</clipPath>
</defs>
</svg>
