<svg width="20" height="21" viewBox="0 0 20 21" fill="none" xmlns="http://www.w3.org/2000/svg">
<path d="M19.238 15.8984L15.3122 11.9727C15.0908 11.7383 14.8142 11.6211 14.4821 11.6211C14.1501 11.6211 13.8669 11.7383 13.6325 11.9727L12.5974 12.9883C12.4411 13.1576 12.3369 13.3464 12.2849 13.5547C12.2328 13.763 12.2393 13.9714 12.3044 14.1797L11.9138 14.5703C11.7836 14.7005 11.3376 14.6224 10.5759 14.3359C9.81415 14.0495 8.91897 13.3919 7.89032 12.3633C6.86168 11.3346 6.20412 10.4395 5.91767 9.67773C5.63121 8.91602 5.55308 8.47005 5.68329 8.33984L6.07392 7.94922C6.126 7.96224 6.18134 7.972 6.23993 7.97852C6.29853 7.98503 6.35386 7.98828 6.40595 7.98828C6.5622 7.98828 6.71194 7.95898 6.85517 7.90039C6.9984 7.8418 7.1286 7.75391 7.24579 7.63672L8.28095 6.62109C8.5023 6.38672 8.61298 6.10352 8.61298 5.77148C8.61298 5.43945 8.5023 5.15625 8.28095 4.92188L4.35517 1.01562C4.23798 0.898438 4.10777 0.810547 3.96454 0.751953C3.82131 0.693359 3.66506 0.664062 3.49579 0.664062C3.33954 0.664062 3.1898 0.693359 3.04657 0.751953C2.90334 0.810547 2.77313 0.898438 2.65595 1.01562L1.64032 2.03125C1.48407 2.1875 1.37991 2.37305 1.32782 2.58789C1.27574 2.80273 1.27574 3.00781 1.32782 3.20312C1.32782 3.20312 1.27248 3.25846 1.16181 3.36914C1.05113 3.47982 0.995791 3.54167 0.995791 3.55469C0.448916 4.16667 0.126651 4.93164 0.0289943 5.84961C-0.068662 6.76758 0.0648016 7.79297 0.429385 8.92578C0.598656 9.48568 0.82001 10.0456 1.09345 10.6055C1.36688 11.1784 1.6859 11.7448 2.05048 12.3047C2.41506 12.8646 2.81871 13.418 3.26142 13.9648C3.70412 14.5117 4.17938 15.0391 4.6872 15.5469C5.20803 16.0677 5.74188 16.5495 6.28876 16.9922C6.83563 17.4349 7.38902 17.8353 7.94892 18.1934C8.50881 18.5514 9.06871 18.8737 9.6286 19.1602C10.2015 19.4336 10.7679 19.6549 11.3278 19.8242C11.7705 19.9674 12.2002 20.0749 12.6169 20.1465C13.0336 20.2181 13.4307 20.2539 13.8083 20.2539C14.4333 20.2539 14.9997 20.1595 15.5075 19.9707C16.0153 19.7819 16.4515 19.4987 16.8161 19.1211L17.0309 18.9258C17.0961 18.9388 17.1546 18.9486 17.2067 18.9551C17.2588 18.9616 17.3109 18.9648 17.363 18.9648C17.5322 18.9648 17.6885 18.9355 17.8317 18.877C17.975 18.8184 18.1052 18.7305 18.2224 18.6133L19.238 17.5977C19.4724 17.3633 19.5895 17.0801 19.5895 16.748C19.5895 16.416 19.4724 16.1328 19.238 15.8984ZM3.49579 1.85547L7.42157 5.78125L6.40595 6.79688L2.48017 2.87109L3.49579 1.85547ZM15.9763 18.2812C15.5466 18.7109 14.9606 18.9616 14.2184 19.0332C13.4763 19.1048 12.6299 18.9909 11.6794 18.6914C11.1716 18.5221 10.6573 18.3138 10.1364 18.0664C9.61558 17.806 9.09475 17.5065 8.57392 17.168C8.05308 16.8294 7.53876 16.4583 7.03095 16.0547C6.52313 15.638 6.02834 15.1888 5.54657 14.707C5.0648 14.2253 4.61558 13.7305 4.19892 13.2227C3.78225 12.7148 3.4079 12.2005 3.07587 11.6797C2.74384 11.1589 2.44761 10.638 2.1872 10.1172C1.9398 9.59635 1.73147 9.08203 1.5622 8.57422C1.26272 7.61068 1.14879 6.76107 1.2204 6.02539C1.29202 5.28971 1.54267 4.70703 1.97235 4.27734L2.07001 4.16016L5.11688 7.20703L4.84345 7.48047C4.55699 7.76693 4.41376 8.13802 4.41376 8.59375C4.42678 9.03646 4.54397 9.51823 4.76532 10.0391C4.98668 10.5599 5.29918 11.0938 5.70282 11.6406C6.10647 12.2005 6.54918 12.7214 7.03095 13.2031C7.77313 13.9453 8.56415 14.5703 9.40399 15.0781C10.2438 15.5859 10.9958 15.8398 11.6599 15.8398C11.8682 15.8398 12.0668 15.804 12.2556 15.7324C12.4444 15.6608 12.6169 15.5534 12.7731 15.4102L13.0466 15.1367L16.0934 18.1641L15.9763 18.2812ZM17.3825 17.7734L13.4567 13.8477L14.4724 12.832L18.3981 16.7383C18.3981 16.7383 18.2289 16.9108 17.8903 17.2559C17.5518 17.6009 17.3825 17.7734 17.3825 17.7734ZM15.195 5.05859C14.6221 4.48568 13.9678 4.04948 13.2321 3.75C12.4964 3.45052 11.725 3.30078 10.9177 3.30078C10.7484 3.30078 10.6052 3.35938 10.488 3.47656C10.3708 3.59375 10.3122 3.73047 10.3122 3.88672C10.3122 4.05599 10.3708 4.19922 10.488 4.31641C10.6052 4.43359 10.7484 4.49219 10.9177 4.49219C11.5687 4.49219 12.1872 4.61263 12.7731 4.85352C13.3591 5.0944 13.8799 5.44922 14.3356 5.91797C14.7914 6.3737 15.1429 6.89453 15.3903 7.48047C15.6377 8.06641 15.7614 8.6849 15.7614 9.33594C15.7614 9.50521 15.82 9.64844 15.9372 9.76562C16.0544 9.88281 16.1976 9.94141 16.3669 9.94141C16.5231 9.94141 16.6599 9.88281 16.777 9.76562C16.8942 9.64844 16.9528 9.50521 16.9528 9.33594C16.9528 8.52865 16.7998 7.75716 16.4938 7.02148C16.1878 6.28581 15.7549 5.63151 15.195 5.05859ZM17.3434 2.91016C16.9138 2.48047 16.4515 2.10287 15.9567 1.77734C15.4619 1.4388 14.9411 1.15885 14.3942 0.9375C13.8474 0.716146 13.2809 0.546875 12.695 0.429688C12.1221 0.3125 11.5296 0.253906 10.9177 0.253906C10.7484 0.253906 10.6052 0.3125 10.488 0.429688C10.3708 0.546875 10.3122 0.690104 10.3122 0.859375C10.3122 1.01562 10.3708 1.15234 10.488 1.26953C10.6052 1.38672 10.7484 1.44531 10.9177 1.44531C11.9724 1.44531 12.9782 1.64388 13.9352 2.04102C14.8923 2.43815 15.7419 3.00781 16.4841 3.75C17.2393 4.50521 17.8155 5.36133 18.2126 6.31836C18.6097 7.27539 18.8083 8.28125 18.8083 9.33594C18.8083 9.50521 18.8669 9.64844 18.9841 9.76562C19.1013 9.88281 19.238 9.94141 19.3942 9.94141C19.5635 9.94141 19.7067 9.88281 19.8239 9.76562C19.9411 9.64844 19.9997 9.50521 19.9997 9.33594C19.9997 8.72396 19.9411 8.125 19.8239 7.53906C19.7067 6.96615 19.5375 6.40625 19.3161 5.85938C19.0947 5.3125 18.8148 4.79167 18.4763 4.29688C18.1507 3.80208 17.7731 3.33984 17.3434 2.91016ZM13.027 7.20703C12.7406 6.92057 12.4183 6.70247 12.0602 6.55273C11.7022 6.403 11.3213 6.32812 10.9177 6.32812C10.7484 6.32812 10.6052 6.38672 10.488 6.50391C10.3708 6.62109 10.3122 6.76432 10.3122 6.93359C10.3122 7.10286 10.3708 7.24609 10.488 7.36328C10.6052 7.48047 10.7484 7.53906 10.9177 7.53906C11.1651 7.53906 11.3962 7.58138 11.611 7.66602C11.8259 7.75065 12.0179 7.88411 12.1872 8.06641C12.3565 8.23568 12.4867 8.42773 12.5778 8.64258C12.669 8.85742 12.7145 9.08854 12.7145 9.33594C12.7145 9.50521 12.7731 9.64844 12.8903 9.76562C13.0075 9.88281 13.1507 9.94141 13.32 9.94141C13.4763 9.94141 13.613 9.88281 13.7302 9.76562C13.8474 9.64844 13.9059 9.50521 13.9059 9.33594C13.9059 8.93229 13.8343 8.54818 13.6911 8.18359C13.5479 7.81901 13.3265 7.49349 13.027 7.20703Z" fill="#1D1D1D"/>
</svg>
