<svg width="20" height="20" viewBox="0 0 20 20" fill="none" xmlns="http://www.w3.org/2000/svg">
<g clip-path="url(#clip0_19_8531)">
<path d="M19.8438 8.65234L17.3047 6.97266V1.30859C17.3047 1.21745 17.2721 1.13932 17.207 1.07422C17.1419 1.00912 17.0638 0.976562 16.9727 0.976562H3.02734C2.9362 0.976562 2.85807 1.00912 2.79297 1.07422C2.72786 1.13932 2.69531 1.21745 2.69531 1.30859V6.97266L0.15625 8.65234C0.104167 8.69141 0.0651042 8.73372 0.0390625 8.7793C0.0130208 8.82487 0 8.8737 0 8.92578V19.1992C0 19.2904 0.0325521 19.3685 0.0976562 19.4336C0.16276 19.4987 0.240885 19.5312 0.332031 19.5312H19.668C19.7591 19.5312 19.8372 19.4987 19.9023 19.4336C19.9674 19.3685 20 19.2904 20 19.1992V8.92578C20 8.8737 19.987 8.82487 19.9609 8.7793C19.9349 8.73372 19.8958 8.69141 19.8438 8.65234ZM2.69531 9.82422L1.66016 9.25781H2.69531V9.82422ZM0.664062 9.49219L8.28125 13.5352L0.664062 18.5742V9.49219ZM10 13.1836L18.5742 18.8672H1.42578L10 13.1836ZM11.7188 13.5352L19.3359 9.49219V18.5742L11.7188 13.5352ZM17.3047 9.25781H18.3398L17.3047 9.82422V9.25781ZM18.5742 8.61328H17.3047V7.75391L18.5742 8.61328ZM16.6406 1.64062V10.1758L11.0938 13.1055L10.1758 12.5C10.1237 12.474 10.0651 12.4609 10 12.4609C9.9349 12.4609 9.8763 12.474 9.82422 12.5L8.90625 13.1055L3.35938 10.1758V1.64062H16.6406ZM2.69531 8.61328H1.42578L2.69531 7.75391V8.61328ZM10 9.6875H12.6367C12.7279 9.6875 12.806 9.65495 12.8711 9.58984C12.9362 9.52474 12.9688 9.44661 12.9688 9.35547C12.9688 9.26432 12.9362 9.1862 12.8711 9.12109C12.806 9.05599 12.7279 9.02344 12.6367 9.02344H10C9.36198 9.02344 8.81836 8.79883 8.36914 8.34961C7.91992 7.90039 7.69531 7.35677 7.69531 6.71875V6.62109C7.69531 5.98307 7.91992 5.43945 8.36914 4.99023C8.81836 4.54102 9.36198 4.31641 10 4.31641C10.638 4.31641 11.1816 4.54102 11.6309 4.99023C12.0801 5.43945 12.3047 5.98307 12.3047 6.62109V6.85547C12.3047 6.9987 12.2559 7.11914 12.1582 7.2168C12.0605 7.31445 11.9466 7.36328 11.8164 7.36328C11.6732 7.36328 11.5527 7.31445 11.4551 7.2168C11.3574 7.11914 11.3086 6.9987 11.3086 6.85547V6.40625C11.3086 6.0026 11.1686 5.66081 10.8887 5.38086C10.6087 5.10091 10.2734 4.96094 9.88281 4.96094C9.47917 4.96094 9.13737 5.10091 8.85742 5.38086C8.57747 5.66081 8.4375 6.0026 8.4375 6.40625C8.4375 6.79688 8.57747 7.13216 8.85742 7.41211C9.13737 7.69206 9.47917 7.83203 9.88281 7.83203C10.0651 7.83203 10.2344 7.79948 10.3906 7.73438C10.5469 7.66927 10.6901 7.58464 10.8203 7.48047C10.9245 7.63672 11.0645 7.76693 11.2402 7.87109C11.416 7.97526 11.6081 8.02734 11.8164 8.02734C12.1289 8.02734 12.3991 7.91341 12.627 7.68555C12.8548 7.45768 12.9688 7.18099 12.9688 6.85547V6.62109C12.9688 5.80078 12.679 5.10091 12.0996 4.52148C11.5202 3.94206 10.8203 3.65234 10 3.65234C9.17969 3.65234 8.47982 3.94206 7.90039 4.52148C7.32096 5.10091 7.03125 5.80078 7.03125 6.62109V6.71875C7.03125 7.53906 7.32096 8.23893 7.90039 8.81836C8.47982 9.39779 9.17969 9.6875 10 9.6875ZM9.88281 7.16797C9.66146 7.16797 9.47591 7.0931 9.32617 6.94336C9.17643 6.79362 9.10156 6.61458 9.10156 6.40625C9.10156 6.1849 9.17643 5.99935 9.32617 5.84961C9.47591 5.69987 9.66146 5.625 9.88281 5.625C10.0911 5.625 10.2702 5.69987 10.4199 5.84961C10.5697 5.99935 10.6445 6.1849 10.6445 6.40625C10.6445 6.61458 10.5697 6.79362 10.4199 6.94336C10.2702 7.0931 10.0911 7.16797 9.88281 7.16797Z" fill="#1D1D1D"/>
</g>
<defs>
<clipPath id="clip0_19_8531">
<rect width="20" height="20" fill="white" transform="matrix(1 0 0 -1 0 20)"/>
</clipPath>
</defs>
</svg>
